<svg width="336" height="327" viewBox="0 0 336 327" fill="none" xmlns="http://www.w3.org/2000/svg">
<g opacity="0.05">
<path d="M163.409 131.808L138.446 156.771L145.797 164.121L154.06 155.858L176.281 178.079L184.718 169.642L162.497 147.421L170.76 139.158L163.409 131.808Z" fill="#393939"/>
<path d="M189.138 119.598L190.086 122.198C186.609 122.549 183.243 124.14 180.46 126.924C173.284 134.099 173.179 144.258 180.234 151.313C187.331 158.41 197.532 158.348 204.708 151.172C207.448 148.432 209.039 145.152 209.431 141.718L211.732 142.627L217.995 136.365L195.183 113.552L189.138 119.598ZM198.867 143.157C195.823 146.201 191.366 146.18 188.367 143.181C185.41 140.224 185.431 135.809 188.475 132.765C191.52 129.72 195.934 129.699 198.891 132.656C201.891 135.656 201.912 140.112 198.867 143.157Z" fill="#393939"/>
<path d="M197.501 105.574L205.503 97.5716L198.828 90.897L190.826 98.899L197.501 105.574ZM223.1 131.26L231.189 123.171L208.377 100.358L200.288 108.448L223.1 131.26Z" fill="#393939"/>
<path d="M238.95 101.469L233.29 78.0648L231.98 76.7552L212.584 96.1516L219.554 103.122L227.774 94.9024L233.472 118.606L234.613 119.746L254.879 99.4803L247.909 92.5099L238.95 101.469Z" fill="#393939"/>
<path d="M270.896 84.984C278.55 77.3299 278.962 66.6951 271.907 59.6403C264.852 52.5854 254.26 53.0392 246.606 60.6934C238.952 68.3476 238.541 78.8966 245.596 85.9514C252.651 93.0063 263.242 92.6382 270.896 84.984ZM263.841 77.9292C260.928 80.843 256.727 80.904 253.727 77.9046C250.686 74.863 250.747 70.662 253.661 67.7482C256.618 64.7909 260.861 64.7722 263.86 67.7716C266.86 70.7709 266.799 74.9719 263.841 77.9292Z" fill="#393939"/>
<path d="M286.756 67.6038L294.627 59.7322L287.361 52.4661L279.49 60.3378L286.756 67.6038Z" fill="#393939"/>
<path d="M273.82 29.2546L281.822 21.2525L275.148 14.5779L267.145 22.58L273.82 29.2546ZM299.419 54.9405L307.508 46.8515L284.696 24.0394L276.607 32.1285L299.419 54.9405Z" fill="#393939"/>
<path d="M303.317 4.15145C300.272 7.19572 298.761 10.9034 298.923 14.544L295.47 13.2656L289.773 18.9627L312.585 41.7747L320.674 33.6857L308.507 21.5193C305.593 18.6044 305.338 15.4794 307.86 12.957C309.904 10.913 312.258 11.1789 314.919 13.8403L327.719 26.6404L335.808 18.5513L321.91 4.65286C316.122 -1.13464 308.753 -1.28474 303.317 4.15145Z" fill="#393939"/>
<path fill-rule="evenodd" clip-rule="evenodd" d="M10.3488 261.606C-2.54636 248.711 -2.39449 227.651 10.6881 214.569L66.614 158.643C79.6965 145.56 100.756 145.409 113.651 158.304L168.777 213.429C181.672 226.325 181.52 247.384 168.437 260.466L112.511 316.392C99.4289 329.475 78.3698 329.627 65.4746 316.732L10.3488 261.606Z" fill="#169C50"/>
<path fill-rule="evenodd" clip-rule="evenodd" d="M127.046 217.436L108.859 199.248C111.082 195.841 110.984 191.444 108.615 188.204C106.246 184.965 102.098 183.557 98.1972 184.67C94.2956 185.782 91.4545 189.182 91.0605 193.209L65.8423 200.134C65.6265 199.87 65.4022 199.617 65.1569 199.371C61.3866 195.601 55.2292 195.645 51.4039 199.471C47.579 203.295 47.5344 209.453 51.3047 213.223C51.595 213.512 51.9049 213.779 52.2319 214.025L45.3723 239.007C41.3383 239.351 37.903 242.154 36.7449 246.044C35.5871 249.935 36.9488 254.102 40.1642 256.508C43.3799 258.913 47.7777 259.055 51.2077 256.864L69.4305 275.087C67.2423 278.508 67.376 282.897 69.7668 286.114C72.1579 289.33 76.3086 290.707 80.198 289.572C84.0868 288.439 86.906 285.03 87.2818 281.007L112.851 273.987L112.764 273.664C116.584 276.073 120.463 277.153 123.458 276.647L124.699 277.888L126.104 276.483L125.558 275.937C126.048 275.679 126.497 275.348 126.891 274.957C127.455 274.386 127.894 273.706 128.183 272.96L128.907 273.684L130.315 272.276L128.682 270.643C128.682 267.185 127.643 263.821 125.701 260.987L132.768 235.253C136.842 234.989 140.355 232.21 141.563 228.296C142.771 224.383 141.418 220.166 138.174 217.739C134.93 215.311 130.485 215.191 127.046 217.436ZM96.7391 190.084C99.0045 187.816 102.652 187.789 104.887 190.022C107.122 192.255 107.097 195.903 104.831 198.17C102.565 200.437 98.9174 200.464 96.6831 198.23C94.4499 195.997 94.475 192.351 96.7391 190.084ZM67.6898 203.93L91.5717 197.37C92.4028 199.747 94.1396 201.688 96.4076 202.775L92.0603 219.024C86.9271 217.992 81.5671 219.298 77.4288 222.59L66.3582 211.52C67.8197 209.266 68.3002 206.523 67.6868 203.935L67.6898 203.93ZM54.2306 202.362C56.496 200.095 60.1441 200.067 62.379 202.3C64.6134 204.533 64.5881 208.181 62.3224 210.448C60.057 212.715 56.409 212.742 54.1746 210.509C51.9441 208.278 51.967 204.635 54.2272 202.367L54.2306 202.362ZM56.0497 215.791C58.5558 216.334 61.1895 215.857 63.3734 214.466L74.4739 225.567C71.1878 229.742 69.9149 235.139 71.002 240.286L54.947 244.608C53.9076 242.251 51.9517 240.427 49.5254 239.554L56.0497 215.791ZM42.0096 252.902C39.7733 250.67 39.7974 247.02 42.0637 244.752C44.3295 242.484 47.9792 242.456 50.2141 244.691C52.4497 246.926 52.4231 250.575 50.1554 252.842C47.8907 255.11 44.2437 255.139 42.0072 252.908L42.0096 252.902ZM81.6967 284.382C79.4308 286.65 75.7813 286.678 73.5464 284.443C71.3114 282.208 71.3388 278.559 73.6071 276.293C75.8752 274.027 79.5247 274.004 81.7568 276.241C83.988 278.475 83.96 282.121 81.6946 284.387L81.6967 284.382ZM72.3788 272.1L54.193 253.914C55.214 252.35 55.7688 250.532 55.79 248.677L72.3383 244.217C74.4118 248.604 78.2324 251.901 82.8814 253.316L78.2753 270.524C76.1996 270.409 74.132 270.963 72.3763 272.106L72.3788 272.1ZM122.543 256.821C122.209 256.45 121.867 256.086 121.507 255.725C115.635 249.854 108.416 247.263 104.095 249.131L93.705 238.741C94.938 236.163 94.15 233.098 91.8384 231.479C89.5263 229.86 86.3603 230.155 84.3363 232.179C82.3124 234.203 82.0169 237.369 83.6363 239.681C85.2554 241.993 88.3202 242.781 90.8986 241.548L101.204 251.854C99.0785 256.135 101.652 263.558 107.661 269.567C108.076 269.982 108.5 270.376 108.924 270.758L86.7622 276.841C86.2916 275.506 85.531 274.296 84.5336 273.297C83.8649 272.63 83.1006 272.065 82.2659 271.621L86.9672 254.06C90.9955 254.313 95.0089 253.179 98.3418 250.847L95.4421 247.948C89.5556 251.626 81.9141 250.382 77.621 245.047C73.3278 239.712 73.7286 231.956 78.5552 226.96C83.3815 221.965 91.1225 221.294 96.6071 225.396C102.092 229.498 103.602 237.088 100.129 243.096L103.065 246.032C105.2 242.803 106.235 238.981 106.012 235.146L123.766 230.363C124.841 232.312 126.565 233.818 128.642 234.624L122.543 256.821ZM122.586 226.386L105.29 231.044C103.873 226.293 100.497 222.396 96.0015 220.323L100.443 203.729C102.362 203.763 104.254 203.226 105.882 202.187L124.105 220.41C122.963 222.195 122.429 224.294 122.583 226.391L122.586 226.386ZM136.371 229.714C134.106 231.982 130.457 232.01 128.222 229.777C125.987 227.544 126.013 223.895 128.279 221.628C130.546 219.361 134.195 219.335 136.428 221.57C138.658 223.803 138.631 227.447 136.368 229.713L136.371 229.714Z" fill="white"/>
</g>
</svg>
