<svg width="70" height="25" viewBox="0 0 70 25" fill="none" xmlns="http://www.w3.org/2000/svg">
<path d="M34.8278 8.58843H28.6806V10.3932H30.7154V15.8488H32.793V10.3932H34.8278V8.58843Z" fill="#393939"/>
<path d="M39.4991 10.2479L39.2957 10.6836C38.8244 10.2998 38.214 10.082 37.5286 10.082C35.7615 10.082 34.4978 11.3163 34.4978 13.0484C34.4978 14.7909 35.7615 16.0355 37.5286 16.0355C38.2033 16.0355 38.803 15.8281 39.2742 15.4547L39.4456 15.8488H40.9878V10.2479H39.4991ZM37.7963 14.3345C37.0467 14.3345 36.5005 13.7848 36.5005 13.0484C36.5005 12.3224 37.0467 11.783 37.7963 11.783C38.546 11.783 39.0922 12.3224 39.0922 13.0484C39.0922 13.7848 38.546 14.3345 37.7963 14.3345Z" fill="#393939"/>
<path d="M42.2556 9.55302H44.2262V7.91424H42.2556V9.55302ZM42.2449 15.8488H44.2369V10.2479H42.2449V15.8488Z" fill="#393939"/>
<path d="M47.8646 14.1375L50.0493 10.5695V10.2479H45.2729V11.9593H47.297L45.0801 15.5688V15.8488H50.0707V14.1375H47.8646Z" fill="#393939"/>
<path d="M53.8278 16.0355C55.7127 16.0355 57.0728 14.7805 57.0728 13.0484C57.0728 11.3163 55.7127 10.0716 53.8278 10.0716C51.9429 10.0716 50.5935 11.3163 50.5935 13.0484C50.5935 14.7805 51.9429 16.0355 53.8278 16.0355ZM53.8278 14.3034C53.1103 14.3034 52.5855 13.7952 52.5855 13.0588C52.5855 12.312 53.1103 11.8038 53.8278 11.8038C54.556 11.8038 55.0808 12.3224 55.0808 13.0588C55.0808 13.7952 54.556 14.3034 53.8278 14.3034Z" fill="#393939"/>
<path d="M57.9205 15.8488H59.859V14.0648H57.9205V15.8488Z" fill="#393939"/>
<path d="M61.0496 9.55302H63.0202V7.91424H61.0496V9.55302ZM61.0389 15.8488H63.0309V10.2479H61.0389V15.8488Z" fill="#393939"/>
<path d="M67.7724 10.0924C67.0227 10.0924 66.3802 10.362 65.9518 10.8288L65.684 10.2479H64.2811V15.8488H66.2731V12.8617C66.2731 12.146 66.6265 11.7311 67.2476 11.7311C67.751 11.7311 68.008 12.0527 68.008 12.7061V15.8488H70V12.4364C70 11.0155 69.1111 10.0924 67.7724 10.0924Z" fill="#393939"/>
<path fill-rule="evenodd" clip-rule="evenodd" d="M0 5.73268C0 2.56661 2.61167 0 5.83333 0H19.6054C22.8271 0 25.4387 2.56661 25.4387 5.73267V19.2673C25.4387 22.4334 22.8271 25 19.6054 25H5.83333C2.61167 25 0 22.4334 0 19.2673V5.73268Z" fill="#169C50"/>
<path fill-rule="evenodd" clip-rule="evenodd" d="M19.8073 14.6362V10.1708C20.5006 10.0254 21.0299 9.47373 21.1371 8.78516C21.2443 8.09658 20.9069 7.41463 20.2896 7.07229C19.6722 6.72987 18.9038 6.79847 18.3594 7.24451L14.4017 4.99878C14.4076 4.93988 14.4112 4.88122 14.4112 4.82099C14.4112 3.89529 13.6476 3.14485 12.7056 3.14485C11.7637 3.14485 11 3.89529 11 4.82099C11.0003 4.89199 11.0055 4.96292 11.0155 5.03323L7.0949 7.25798C6.55582 6.805 5.78779 6.72729 5.16615 7.06275C4.54453 7.39826 4.19915 8.07694 4.29884 8.767C4.39865 9.45702 4.92264 10.0143 5.61476 10.1664V14.6406C4.92398 14.792 4.4001 15.3472 4.29842 16.0355C4.19683 16.7239 4.53836 17.4025 5.15692 17.7407C5.77533 18.0789 6.54217 18.0065 7.08383 17.5588L11.0964 19.8359L11.1255 19.7857C11.2992 20.5502 11.6439 21.159 12.0749 21.4646V21.7694H12.4209V21.6353C12.5131 21.6637 12.6091 21.6783 12.7056 21.6786C12.8454 21.6777 12.9833 21.6482 13.1107 21.592V21.7698H13.4574V21.3689C13.8832 20.9443 14.1695 20.4039 14.2792 19.8175L18.318 17.5259C18.8521 17.9936 19.6268 18.0838 20.2575 17.7517C20.8881 17.4195 21.2407 16.7357 21.1401 16.0395C21.0396 15.3433 20.5071 14.7828 19.8073 14.6362ZM19.4434 7.55794C20.0015 7.5577 20.4541 8.00212 20.4543 8.5506C20.4545 9.09907 20.0022 9.54384 19.4441 9.54398C18.886 9.54415 18.4335 9.09966 18.4335 8.55115C18.4335 8.00285 18.8855 7.55828 19.4434 7.55794ZM14.1618 5.69162L17.91 7.81805C17.7197 8.21187 17.6945 8.6634 17.8399 9.07527L15.3039 10.5364C14.7991 9.77939 13.9783 9.28174 13.0633 9.17794V6.45985C13.5208 6.36255 13.9176 6.08488 14.1608 5.69186L14.1618 5.69162ZM12.6976 3.84682C13.2558 3.84657 13.7084 4.29098 13.7086 4.83948C13.7088 5.38793 13.2564 5.83269 12.6983 5.83283C12.1403 5.83301 11.6878 5.38851 11.6877 4.84004C11.6877 4.29239 12.1391 3.84797 12.6966 3.84702L12.6976 3.84682ZM11.2681 5.71872C11.5099 6.09301 11.8928 6.35782 12.333 6.45512V9.18055C11.4143 9.28972 10.5931 9.79597 10.0932 10.5612L7.58413 9.121C7.74648 8.70393 7.73017 8.23999 7.53894 7.83493L11.2681 5.71872ZM4.96997 8.55094C4.96953 8.00234 5.42185 7.55728 5.98014 7.55708C6.53838 7.55681 6.99117 8.00144 6.99126 8.55008C6.99126 9.09897 6.53868 9.54367 5.98035 9.54357C5.42232 9.5439 4.96968 9.09978 4.96899 8.55135L4.96997 8.55094ZM5.98059 17.2874C5.42226 17.2878 4.96953 16.8431 4.96947 16.2945C4.96947 15.7457 5.4222 15.3011 5.9805 15.3014C6.53874 15.3016 6.99096 15.7468 6.99034 16.2955C6.98992 16.8437 6.53755 17.2878 5.97966 17.2878L5.98059 17.2874ZM6.34556 14.6358V10.1708C6.66379 10.1042 6.95593 9.9491 7.18697 9.72396L9.77365 11.208C9.48884 12.001 9.55329 12.8748 9.95152 13.6192L7.26562 15.1662C7.02414 14.8973 6.7013 14.7116 6.34449 14.6362L6.34556 14.6358ZM14.4035 18.9185C14.4079 18.8319 14.4107 18.7452 14.4107 18.6566C14.4107 17.2151 13.8408 16.0109 13.0787 15.7096V13.1588C13.548 12.9936 13.8283 12.5206 13.7431 12.0381C13.6578 11.5554 13.2316 11.203 12.7332 11.203C12.2348 11.203 11.8086 11.5554 11.7233 12.0381C11.638 12.5206 11.9184 12.9936 12.3876 13.1588V15.689C11.5987 15.9537 11.0016 17.1808 11.0016 18.6562C11.0016 18.758 11.0054 18.8585 11.0104 18.9575L7.53277 16.9836C7.63919 16.7619 7.69456 16.52 7.69477 16.2749C7.69456 16.1109 7.66993 15.9478 7.62184 15.7908L10.3629 14.2122C10.8278 14.7377 11.4616 15.0912 12.1591 15.2141V14.5022C10.9814 14.2311 10.1936 13.1403 10.3219 11.9583C10.4503 10.7763 11.4545 9.87343 12.6639 9.85267C13.8732 9.83192 14.909 10.6999 15.0792 11.8767C15.2495 13.0536 14.5009 14.1708 13.3335 14.482V15.2028C13.994 15.0685 14.5919 14.7264 15.0368 14.2282L17.8117 15.8205C17.7041 16.1918 17.7309 16.5882 17.8875 16.9422L14.4035 18.9185ZM18.1561 15.1875L15.453 13.6361C15.8634 12.8788 15.9275 11.986 15.6293 11.1796L18.2194 9.68779C18.4514 9.92742 18.7506 10.0939 19.0789 10.1662V14.6404C18.7186 14.7193 18.3943 14.9114 18.1551 15.1877L18.1561 15.1875ZM19.4437 17.2883C18.8855 17.2886 18.4327 16.8441 18.4325 16.2956C18.4323 15.7471 18.8848 15.3023 19.4429 15.3022C20.0012 15.3022 20.4536 15.747 20.4535 16.2955C20.453 16.8434 20.001 17.2875 19.4434 17.2878L19.4437 17.2883Z" fill="white"/>
</svg>
